<?xml version="1.0" encoding="UTF-8"?>
<!DOCTYPE svg PUBLIC "-//W3C//DTD SVG 1.1//EN" "http://www.w3.org/Graphics/SVG/1.1/DTD/svg11.dtd">
<!-- Creator: CorelDRAW 2021 (64 Bit) -->
<svg xmlns="http://www.w3.org/2000/svg" xml:space="preserve" width="200mm" height="119mm" version="1.1" style="shape-rendering:geometricPrecision; text-rendering:geometricPrecision; image-rendering:optimizeQuality; fill-rule:evenodd; clip-rule:evenodd"
viewBox="0 0 20000 11900"
 xmlns:xlink="http://www.w3.org/1999/xlink"
 xmlns:xodm="http://www.corel.com/coreldraw/odm/2003">
 <defs>
  <style type="text/css">
   <![CDATA[
    .fil1 {fill:#F9A33A}
    .fil0 {fill:#F5874F}
    .fil3 {fill:#373435;fill-rule:nonzero}
    .fil2 {fill:#F5874F;fill-rule:nonzero}
   ]]>
  </style>
 </defs>
 <g id="Camada_x0020_1">
  <metadata id="CorelCorpID_0Corel-Layer"/>
  <g id="_2895724249024">
   <path class="fil0" d="M15483.87 2374.32c-380.86,380.96 -761.85,761.88 -1142.81,1142.84 -54.98,54.97 -48.92,173.7 -1.62,220.94l249.49 249.48 -718.3 0c303.01,302.98 794.24,302.98 1097.18,0l1373.97 -1373.94 548.55 -548.54 -787.9 0c-170.82,0 -447.74,138.43 -618.56,309.22z"/>
   <path class="fil1" d="M10531.73 648.71l3338.9 3338.87c-627.04,627.05 -1643.71,627.05 -2270.72,0l-2843.59 -2843.56 -1135.4 -1135.39 1630.71 0c353.48,0 926.65,286.59 1280.1,640.08z"/>
   <path class="fil2" d="M16221.67 1947.16l-51.64 0 0 -311.52 -52.33 32.07 0 -53.3 52.33 -35.01 51.64 0 0 367.76zm192.63 -182.51l-0.26 9.03c-4.24,7.74 -10.55,13.43 -19.06,17.09 -8.57,3.62 -18.57,5.47 -30.25,5.47 -17.51,0 -32.94,-4.5 -46.24,-13.43 -13.3,-8.97 -23.66,-21.59 -30.97,-37.83 -7.38,-16.28 -10.97,-35.08 -10.97,-56.53l0 -0.23c0,-23.71 3.95,-44.1 12.01,-60.93 7.89,-16.82 19.7,-29.7 35.14,-38.44 15.37,-8.83 33.91,-13.2 55.46,-13.2 21.55,0 40.06,4.53 55.43,13.49 15.27,8.87 26.99,21.81 34.98,38.93 8.02,17.02 12.07,37.44 12.07,61.45l0 0.26c0,13.1 -1.72,27.18 -5.08,42.03 -3.34,14.92 -8.19,29.77 -14.43,44.46 -1.01,2.17 -1.98,4.37 -3.08,6.67 -1,2.33 -2.13,4.46 -3.2,6.7l-78.41 157.52 -55.65 0 92.51 -182.51zm-35.14 -15.53c16.24,0 28.77,-5.37 37.57,-16.34 8.86,-10.97 13.3,-26.44 13.3,-46.37l0 -0.16c0,-19.41 -4.44,-34.43 -13.3,-45.08 -8.8,-10.64 -21.33,-15.85 -37.57,-15.85 -16.31,0 -28.93,5.21 -37.8,15.85 -8.86,10.65 -13.3,25.7 -13.3,45.24l0 0.23c0,19.96 4.44,35.3 13.3,46.17 8.87,10.94 21.49,16.31 37.8,16.31zm244.79 201.85c-20.55,0 -38.73,-3.81 -54.39,-11.16 -15.7,-7.57 -28.35,-18.48 -37.8,-32.65 -9.48,-14.27 -15.6,-31.45 -18.02,-51.58l0 0 52.55 0 0 0c1.52,10.52 4.79,19.13 9.8,25.82 5.15,6.73 11.68,11.85 19.64,15.08 8.03,3.3 17.45,4.92 28.22,4.92 16.99,0 30.29,-4.56 39.7,-13.59 9.42,-9.16 14.11,-21.91 14.11,-38.54l0 -11.16c0,-18.35 -4.5,-32.49 -13.3,-42.49 -8.99,-10.13 -21.58,-15.11 -38.02,-15.11l-25.98 0 0 -49.05 25.98 0c14.34,0 25.47,-4.31 33.36,-12.88 8,-8.61 11.94,-20.78 11.94,-36.41l0 -11.39c0,-14.49 -4.17,-25.69 -12.55,-33.65 -8.28,-7.99 -20.16,-11.81 -35.5,-11.81 -8.74,0 -16.6,1.62 -23.49,4.85 -6.89,3.3 -12.78,8.32 -17.57,15.15 -4.86,6.89 -8.38,15.46 -10.58,25.69l0 0 -52.36 0 0 0c3.43,-20.1 9.81,-37.28 19.13,-51.61 9.41,-14.34 21.22,-25.18 35.59,-32.62 14.3,-7.41 30.71,-11.13 49.28,-11.13 31.65,0 56.18,8.38 73.62,25.04 17.37,16.73 25.98,40.19 25.98,70.58l0 6.05c0,18.38 -4.89,34.36 -14.85,48.08 -10,13.66 -24.08,23.59 -42.26,29.77 20.06,4.47 35.62,14.24 46.66,29.64 11.1,15.34 16.57,34.89 16.57,58.7l0 6.02c0,21.45 -4.15,39.7 -12.46,54.91 -8.22,15.24 -20.26,26.67 -35.98,34.63 -15.76,7.92 -34.72,11.9 -57.02,11.9zm252.85 0c-20.52,0 -38.64,-3.81 -54.36,-11.16 -15.7,-7.57 -28.35,-18.48 -37.83,-32.65 -9.45,-14.27 -15.5,-31.45 -18.02,-51.58l0 0 52.55 0 0 0c1.61,10.52 4.82,19.13 9.9,25.82 5.08,6.73 11.58,11.85 19.58,15.08 7.99,3.3 17.4,4.92 28.18,4.92 17.02,0 30.32,-4.56 39.7,-13.59 9.45,-9.16 14.18,-21.91 14.18,-38.54l0 -11.16c0,-18.35 -4.5,-32.49 -13.37,-42.49 -9.03,-10.13 -21.58,-15.11 -37.99,-15.11l-25.95 0 0 -49.05 25.95 0c14.31,0 25.47,-4.31 33.43,-12.88 7.93,-8.61 11.94,-20.78 11.94,-36.41l0 -11.39c0,-14.49 -4.27,-25.69 -12.56,-33.65 -8.38,-7.99 -20.15,-11.81 -35.52,-11.81 -8.77,0 -16.64,1.62 -23.53,4.85 -6.89,3.3 -12.81,8.32 -17.6,15.15 -4.86,6.89 -8.25,15.46 -10.55,25.69l0 0 -52.29 0 0 0c3.36,-20.1 9.71,-37.28 19.06,-51.61 9.38,-14.34 21.29,-25.18 35.56,-32.62 14.3,-7.41 30.74,-11.13 49.35,-11.13 31.67,0 56.14,8.38 73.58,25.04 17.37,16.73 26.01,40.19 26.01,70.58l0 6.05c0,18.38 -4.95,34.36 -14.88,48.08 -9.97,13.66 -24.04,23.59 -42.26,29.77 20.09,4.47 35.63,14.24 46.69,29.64 11.04,15.34 16.57,34.89 16.57,58.7l0 6.02c0,21.45 -4.17,39.7 -12.43,54.91 -8.31,15.24 -20.28,26.67 -35.98,34.63 -15.82,7.92 -34.82,11.9 -57.11,11.9z"/>
   <path class="fil0" d="M15483.87 2374.32c-380.86,380.96 -761.85,761.88 -1142.81,1142.84 -54.98,54.97 -48.92,173.7 -1.62,220.94l249.49 249.48 -718.3 0c303.01,302.98 794.24,302.98 1097.18,0l1373.97 -1373.94 548.55 -548.54 -787.9 0c-170.82,0 -447.74,138.43 -618.56,309.22z"/>
   <path class="fil1" d="M10531.73 648.71l3338.9 3338.87c-627.04,627.05 -1643.71,627.05 -2270.72,0l-2843.59 -2843.56 -1135.4 -1135.39 1630.71 0c353.48,0 926.65,286.59 1280.1,640.08z"/>
   <path class="fil2" d="M16221.67 1947.16l-51.64 0 0 -311.52 -52.33 32.07 0 -53.3 52.33 -35.01 51.64 0 0 367.76zm192.63 -182.51l-0.26 9.03c-4.24,7.74 -10.55,13.43 -19.06,17.09 -8.57,3.62 -18.57,5.47 -30.25,5.47 -17.51,0 -32.94,-4.5 -46.24,-13.43 -13.3,-8.97 -23.66,-21.59 -30.97,-37.83 -7.38,-16.28 -10.97,-35.08 -10.97,-56.53l0 -0.23c0,-23.71 3.95,-44.1 12.01,-60.93 7.89,-16.82 19.7,-29.7 35.14,-38.44 15.37,-8.83 33.91,-13.2 55.46,-13.2 21.55,0 40.06,4.53 55.43,13.49 15.27,8.87 26.99,21.81 34.98,38.93 8.02,17.02 12.07,37.44 12.07,61.45l0 0.26c0,13.1 -1.72,27.18 -5.08,42.03 -3.34,14.92 -8.19,29.77 -14.43,44.46 -1.01,2.17 -1.98,4.37 -3.08,6.67 -1,2.33 -2.13,4.46 -3.2,6.7l-78.41 157.52 -55.65 0 92.51 -182.51zm-35.14 -15.53c16.24,0 28.77,-5.37 37.57,-16.34 8.86,-10.97 13.3,-26.44 13.3,-46.37l0 -0.16c0,-19.41 -4.44,-34.43 -13.3,-45.08 -8.8,-10.64 -21.33,-15.85 -37.57,-15.85 -16.31,0 -28.93,5.21 -37.8,15.85 -8.86,10.65 -13.3,25.7 -13.3,45.24l0 0.23c0,19.96 4.44,35.3 13.3,46.17 8.87,10.94 21.49,16.31 37.8,16.31zm244.79 201.85c-20.55,0 -38.73,-3.81 -54.39,-11.16 -15.7,-7.57 -28.35,-18.48 -37.8,-32.65 -9.48,-14.27 -15.6,-31.45 -18.02,-51.58l0 0 52.55 0 0 0c1.52,10.52 4.79,19.13 9.8,25.82 5.15,6.73 11.68,11.85 19.64,15.08 8.03,3.3 17.45,4.92 28.22,4.92 16.99,0 30.29,-4.56 39.7,-13.59 9.42,-9.16 14.11,-21.91 14.11,-38.54l0 -11.16c0,-18.35 -4.5,-32.49 -13.3,-42.49 -8.99,-10.13 -21.58,-15.11 -38.02,-15.11l-25.98 0 0 -49.05 25.98 0c14.34,0 25.47,-4.31 33.36,-12.88 8,-8.61 11.94,-20.78 11.94,-36.41l0 -11.39c0,-14.49 -4.17,-25.69 -12.55,-33.65 -8.28,-7.99 -20.16,-11.81 -35.5,-11.81 -8.74,0 -16.6,1.62 -23.49,4.85 -6.89,3.3 -12.78,8.32 -17.57,15.15 -4.86,6.89 -8.38,15.46 -10.58,25.69l0 0 -52.36 0 0 0c3.43,-20.1 9.81,-37.28 19.13,-51.61 9.41,-14.34 21.22,-25.18 35.59,-32.62 14.3,-7.41 30.71,-11.13 49.28,-11.13 31.65,0 56.18,8.38 73.62,25.04 17.37,16.73 25.98,40.19 25.98,70.58l0 6.05c0,18.38 -4.89,34.36 -14.85,48.08 -10,13.66 -24.08,23.59 -42.26,29.77 20.06,4.47 35.62,14.24 46.66,29.64 11.1,15.34 16.57,34.89 16.57,58.7l0 6.02c0,21.45 -4.15,39.7 -12.46,54.91 -8.22,15.24 -20.26,26.67 -35.98,34.63 -15.76,7.92 -34.72,11.9 -57.02,11.9zm252.85 0c-20.52,0 -38.64,-3.81 -54.36,-11.16 -15.7,-7.57 -28.35,-18.48 -37.83,-32.65 -9.45,-14.27 -15.5,-31.45 -18.02,-51.58l0 0 52.55 0 0 0c1.61,10.52 4.82,19.13 9.9,25.82 5.08,6.73 11.58,11.85 19.58,15.08 7.99,3.3 17.4,4.92 28.18,4.92 17.02,0 30.32,-4.56 39.7,-13.59 9.45,-9.16 14.18,-21.91 14.18,-38.54l0 -11.16c0,-18.35 -4.5,-32.49 -13.37,-42.49 -9.03,-10.13 -21.58,-15.11 -37.99,-15.11l-25.95 0 0 -49.05 25.95 0c14.31,0 25.47,-4.31 33.43,-12.88 7.93,-8.61 11.94,-20.78 11.94,-36.41l0 -11.39c0,-14.49 -4.27,-25.69 -12.56,-33.65 -8.38,-7.99 -20.15,-11.81 -35.52,-11.81 -8.77,0 -16.64,1.62 -23.53,4.85 -6.89,3.3 -12.81,8.32 -17.6,15.15 -4.86,6.89 -8.25,15.46 -10.55,25.69l0 0 -52.29 0 0 0c3.36,-20.1 9.71,-37.28 19.06,-51.61 9.38,-14.34 21.29,-25.18 35.56,-32.62 14.3,-7.41 30.74,-11.13 49.35,-11.13 31.67,0 56.14,8.38 73.58,25.04 17.37,16.73 26.01,40.19 26.01,70.58l0 6.05c0,18.38 -4.95,34.36 -14.88,48.08 -9.97,13.66 -24.04,23.59 -42.26,29.77 20.09,4.47 35.63,14.24 46.69,29.64 11.04,15.34 16.57,34.89 16.57,58.7l0 6.02c0,21.45 -4.17,39.7 -12.43,54.91 -8.31,15.24 -20.28,26.67 -35.98,34.63 -15.82,7.92 -34.82,11.9 -57.11,11.9z"/>
   <path class="fil3" d="M1702.53 11907.64c-355.04,0 -671.94,-61.62 -952.15,-186.32 -235.33,-105.28 -426.75,-247.16 -573.37,-424.73l0.02 -0.02 -0.16 -0.17c-5.17,-6.26 -10.28,-12.58 -15.34,-18.93 -29.38,-45.07 -24.73,-105.82 13.93,-145.91l-3.03 -3.03 661.09 -607.14c39.97,-19.52 88.7,-15.07 124.68,13.37 85.28,76.9 183.28,138.41 293.93,184.52 139.37,58.68 286.07,88.03 437.19,88.03 246.48,0 448.94,-67.49 604.44,-201.01 157,-134.97 234.75,-321.28 234.75,-558.95l0 -4296.74c0,-64.34 51.53,-116.62 115.58,-117.8l946.94 0c64.05,1.18 115.58,53.46 115.58,117.8l0 4210.16c0,409.33 -79.23,761.44 -234.75,1053.41 -156.98,291.94 -384.37,514.94 -683.67,666.06 -299.29,152.57 -661.68,227.4 -1085.66,227.4zm-209.8 -1748.8c-315.42,0 -585.38,-76.28 -811.32,-227.4 -224.45,-152.58 -396.11,-372.65 -513.49,-660.21 -117.36,-287.54 -176.06,-635.25 -176.06,-1041.63l0 -714.5c0,-409.33 58.7,-759.96 176.06,-1053.38 117.38,-291.97 289.04,-513.49 513.49,-666.06 225.94,-151.12 495.9,-227.42 811.32,-227.42 237.68,0 454.8,70.42 651.39,212.74 195.13,142.32 353.58,343.31 473.89,604.44l-89.5 988.84c0,-152.58 -26.41,-281.69 -77.75,-387.32 -51.36,-105.64 -126.19,-187.79 -225.94,-243.53 -98.31,-55.75 -218.6,-83.63 -357.97,-83.63 -221.54,0 -391.72,74.82 -513.49,225.92 -121.78,151.13 -183.4,362.39 -183.4,633.8l0 710.1c0,265.54 61.62,472.4 183.4,617.65 121.77,146.69 291.95,220.06 513.49,220.06 139.37,0 259.66,-27.88 357.97,-82.15 99.75,-54.29 174.58,-133.51 225.94,-236.22 51.34,-102.68 77.75,-227.4 77.75,-374.12l60.15 1018.2c-92.43,243.53 -231.8,432.78 -421.06,566.3 -189.26,133.49 -415.18,199.52 -674.87,199.52zm3073.25 -4526.03l946.94 0c64.04,1.18 115.57,53.46 115.57,117.8l0 4225.88c0,64.34 -51.53,116.62 -115.57,117.8l-946.94 0c-64.05,-1.18 -115.58,-53.46 -115.58,-117.8l0 -4225.88c0,-64.34 51.53,-116.62 115.58,-117.8zm2463.61 1757.6c0,-217.14 -63.1,-385.87 -186.34,-506.16 -124.69,-121.76 -302.22,-181.93 -531.09,-181.93 -218.59,0 -385.85,61.62 -506.16,183.38 -118.83,121.79 -177.51,293.44 -177.51,513.51l-90.95 -988.83c134.97,-280.24 296.35,-491.48 484.13,-630.87 187.81,-140.85 424.01,-211.27 707.15,-211.27 469.47,0 833.33,158.45 1091.54,475.35 258.21,316.9 387.32,764.36 387.32,1342.42l0 2590.48 -18.81 0c0,64.34 -51.53,116.62 -115.58,117.8l-928.13 0c-64.04,-1.18 -115.57,-53.46 -115.57,-117.8l0 -2586.08zm2038.91 -3546.02l946.94 0c64.05,1.19 115.58,53.46 115.58,117.8l0 6014.3c0,64.34 -51.53,116.62 -115.58,117.8l-946.94 0c-64.04,-1.18 -115.57,-53.46 -115.57,-117.8l0 -6014.3c0,-64.34 51.53,-116.61 115.57,-117.8zm2463.61 3546.02c0,-217.14 -63.09,-385.87 -186.33,-506.16 -124.69,-121.76 -302.22,-181.93 -531.09,-181.93 -218.6,0 -385.85,61.62 -506.16,183.38 -118.84,121.79 -177.51,293.44 -177.51,513.51l-90.95 -988.83c134.97,-280.24 296.34,-491.48 484.13,-630.87 187.8,-140.85 424,-211.27 707.15,-211.27 469.47,0 833.33,158.45 1091.54,475.35 258.2,316.9 387.32,764.36 387.32,1342.42l0 2590.48c0,64.34 -51.53,116.62 -115.58,117.8l-946.94 0c-64.05,-1.18 -115.58,-53.46 -115.58,-117.8l0 -2586.08z"/>
   <path class="fil3" d="M14629.86 6208.12l0 238.13c0,90.75 -18.32,170.3 -54.97,239.59 -36.64,68.95 -88.45,122.21 -155.41,159.98 -67.28,37.79 -144.82,56.67 -233.27,56.67 -88.73,0 -167.16,-17.74 -235.28,-53.23 -67.83,-35.5 -120.19,-85.57 -157.4,-150.55 -37.23,-64.98 -55.83,-139.95 -55.83,-225.55l0 -359.75c0,-90.47 18.32,-170.3 54.96,-239 36.65,-68.7 88.45,-121.94 155.42,-159.73 67.25,-37.76 144.82,-56.67 233.27,-56.67 72.7,0 139.66,15.19 201.2,44.95 61.54,30.04 112.76,72.12 153.71,127.08 41.21,54.66 68.98,118.21 83.56,190.33l0 0 -248.15 0 0 0c-8.59,-25.76 -22.32,-48.09 -41.48,-66.69 -19.47,-18.6 -42.07,-32.92 -68.14,-42.63 -25.74,-10.04 -52.96,-14.91 -80.7,-14.91 -40.93,0 -76.71,9.18 -107.9,26.91 -30.93,18.04 -54.96,43.22 -72.14,76.42 -16.89,32.93 -25.48,71 -25.48,113.94l0 359.75c0,38.07 8.59,71.56 26.07,100.76 17.15,28.9 41.76,51.22 73.82,66.97 31.78,15.75 68.7,23.47 110.49,23.47 41.51,0 77.57,-8.59 108.76,-25.46 30.91,-17.17 54.97,-41.79 71.56,-74.43 16.89,-32.34 25.2,-70.69 25.2,-114.78l0 -20.02 -184.62 0 0 -221.55 422.75 0zm317.69 -30.04l424.46 0c23.47,0 44.08,-6.02 61.82,-17.74 18.04,-11.74 31.77,-28.33 41.51,-50.37 10.01,-21.77 15.16,-46.94 15.72,-75.28l0 0c0,-28.62 -5.15,-53.82 -14.88,-75.55 -9.74,-21.77 -23.47,-38.66 -41.49,-50.38 -17.76,-11.75 -38.93,-17.46 -62.68,-17.46l-424.46 0 0 -221.54 442.78 0c66.97,0 125.93,15.16 176.87,45.51 50.94,30.04 90.44,72.7 118.21,127.64 28.06,55.25 42.07,119.08 42.07,191.78l0 0c0,72.7 -14.01,136.51 -42.07,191.47 -27.77,55.25 -67.55,97.6 -118.49,127.95 -51.25,30.04 -110.18,45.21 -176.59,45.21l-442.78 0 0 -221.24zm-91.31 -508.32l229.55 0 0 1220.14 -229.55 0 0 -1220.14zm348.04 691.79l245.57 -38.35 328.57 566.7 -278.19 0 -295.95 -528.35zm1165.46 540.94c-93.88,0 -174.3,-17.74 -240.71,-53.23 -66.4,-35.5 -117.06,-87.31 -151.69,-155.14 -34.63,-67.83 -52.09,-149.68 -52.09,-245.29l0 -778.2 229.83 0 0 783.93c0,70.13 18.6,124.23 56.11,162.86 37.48,38.63 90.44,57.82 158.55,57.82 68.7,0 121.93,-19.19 159.72,-57.82 37.77,-38.63 56.68,-92.73 56.68,-162.86l0 -783.93 229.54 0 0 778.2c0,95.61 -17.45,177.46 -52.39,245.29 -34.91,67.83 -85.57,119.64 -152.54,155.14 -66.68,35.49 -147.11,53.23 -241.01,53.23zm785.7 -706.96l389.83 0c27.47,0 51.49,-6.29 72.7,-18.88 20.89,-12.59 37.2,-30.35 48.92,-53.23 11.75,-22.91 17.76,-49.23 17.76,-78.72l0 0c0,-30.35 -5.73,-56.95 -17.17,-80.14 -11.75,-23.19 -27.78,-40.92 -48.67,-53.51 -21.18,-12.61 -45.52,-18.91 -73.54,-18.91l-389.83 0 0 -221.51 384.09 0c75.86,0 142.83,15.44 200.65,46.63 58.1,30.93 102.74,74.71 134.8,131.1 31.78,56.68 47.81,121.94 47.81,196.34l0 0c0,74.41 -16.03,139.67 -47.81,195.79 -32.06,56.08 -76.7,99.58 -134.8,130.49 -57.82,30.63 -124.79,46.1 -200.65,46.1l-384.09 0 0 -221.55zm-104.76 -524.9l229.54 0 0 1219.27 -229.54 0 0 -1219.27zm1472.57 1231.86c-88.42,0 -166.27,-18.6 -233.54,-55.81 -67.56,-37.2 -119.64,-89.59 -156.57,-157.71 -36.92,-67.83 -55.24,-146.55 -55.24,-235.84l0 -345.46c0,-89.6 18.32,-168.28 55.24,-236.12 36.93,-67.83 89.01,-120.5 156.57,-157.71 67.27,-37.2 145.12,-55.83 233.54,-55.83 88.17,0 166.02,18.63 233.26,55.83 67.56,37.21 119.64,89.88 156.57,157.71 36.92,67.84 55.24,146.52 55.24,236.12l0 345.46c0,89.29 -18.32,168.01 -55.24,235.84 -36.93,68.12 -89.01,120.51 -156.57,157.71 -67.24,37.21 -145.09,55.81 -233.26,55.81zm0 -229.83c41.23,0 77.57,-8.86 108.79,-26.32 31.47,-17.76 55.52,-42.66 72.67,-74.99 16.89,-32.65 25.48,-69.85 25.48,-112.48l0 -357.21c0,-42.35 -8.59,-79.87 -25.48,-112.2 -17.15,-32.62 -41.2,-57.54 -72.67,-75.28 -31.22,-17.45 -67.56,-26.32 -108.79,-26.32 -41.48,0 -77.85,8.87 -109.04,26.32 -31.5,17.74 -55.52,42.66 -72.7,75.28 -16.89,32.33 -25.48,69.85 -25.48,112.2l0 357.21c0,42.63 8.59,79.83 25.48,112.48 17.18,32.33 41.2,57.23 72.7,74.99 31.19,17.46 67.56,26.32 109.04,26.32zm-4760.35 600.22l280.76 0 453.67 934.2 -20.03 21.77 0 -955.97 219.53 0 0 1218.41 -282.5 0 -451.93 -919.89 20.03 -21.76 0 941.65 -219.53 0 0 -1218.41zm1202.41 0l229.54 0 0 1219.27 -229.54 0 0 -1219.27zm83 998.04l733.58 0 0 221.23 -733.58 0 0 -221.23zm0 -494.87l641.41 0 0 221.24 -641.41 0 0 -221.24zm0 -503.17l733.58 0 0 221.51 -733.58 0 0 -221.51zm943.38 0l229.54 0 0 1219.27 -229.54 0 0 -1219.27zm102.18 998.04l714.4 0 0 221.23 -714.4 0 0 -221.23zm1231.87 233.82c-58.38,0 -115.06,-6.01 -170.86,-17.73 -55.53,-11.75 -107.92,-28.93 -156.57,-51.53 -48.95,-22.6 -92.72,-49.79 -131.36,-81.57l0 0 106.47 -189.77 0 0c46.94,38.63 101.32,68.43 162.86,89.6 61.26,20.9 124.5,31.19 189.46,31.19 74.71,0 132.81,-12.59 174.32,-38.07 41.49,-25.46 62.1,-61.23 62.1,-107.61l0 -0.87c0,-32.61 -9.15,-58.1 -27.75,-77.26 -18.32,-18.91 -42.38,-32.92 -72.14,-41.79 -29.48,-9.18 -67.55,-17.18 -113.9,-24.34 -1.74,-0.56 -3.44,-0.86 -4.59,-0.86 -1.43,0 -3.13,-0.28 -4.87,-0.84l-18.32 -2.58c-81.57,-12.89 -149.12,-28.92 -202.92,-48.08 -53.54,-19.47 -99.33,-53.26 -136.53,-101.63 -37.48,-48.36 -56.39,-117.06 -56.39,-205.79l0 -0.84c0,-78.72 17.76,-146.27 52.95,-202.08 35.22,-55.8 86.43,-98.46 153.43,-127.94 66.97,-29.18 148.26,-44.09 243.28,-44.09 43.5,0 88.14,5.18 133.65,15.19 45.51,10.01 90.16,24.62 133.68,43.5 43.5,19.19 84.99,42.07 124.2,68.98l0 0 -97.31 194.32 0 0c-46.94,-32.33 -96.17,-57.51 -147.11,-75.27 -51.22,-18.01 -100.17,-26.88 -147.11,-26.88 -70.69,0 -125.07,11.44 -163.73,34.63 -38.63,23.47 -57.82,55.8 -57.82,97.88l0 0.86c0,35.19 10.02,62.97 30.35,83.28 20.03,20.33 44.93,35.49 74.41,44.95 29.77,9.43 71.28,19.44 125.1,30.04 2.26,0.59 4.28,1.15 6.57,1.43 2.29,0.28 4.59,0.59 6.88,1.15 3.13,0.58 6.57,1.42 9.43,2.29 3.16,0.56 6.29,1.43 9.73,2.01 77.29,15.16 141.68,33.49 193.21,54.94 51.81,21.49 95.02,56.12 129.65,103.89 34.63,47.81 52.09,113.07 52.09,195.78l0 1.71c0,77.57 -18.32,144.26 -54.66,199.5 -36.36,55.53 -89.32,97.6 -158.86,126.8 -69.54,28.9 -153.4,43.5 -251.02,43.5zm1060.72 0c-88.42,0 -166.27,-18.6 -233.54,-55.81 -67.56,-37.2 -119.64,-89.59 -156.57,-157.71 -36.92,-67.83 -55.24,-146.54 -55.24,-235.83l0 -345.47c0,-89.59 18.32,-168.28 55.24,-236.12 36.93,-67.83 89.01,-120.5 156.57,-157.71 67.27,-37.2 145.12,-55.83 233.54,-55.83 88.17,0 166.02,18.63 233.27,55.83 67.55,37.21 119.64,89.88 156.56,157.71 36.93,67.84 55.25,146.53 55.25,236.12l0 345.47c0,89.29 -18.32,168 -55.25,235.83 -36.92,68.12 -89.01,120.51 -156.56,157.71 -67.25,37.21 -145.1,55.81 -233.27,55.81zm0 -229.82c41.23,0 77.57,-8.87 108.79,-26.33 31.47,-17.76 55.53,-42.65 72.67,-74.99 16.9,-32.65 25.49,-69.85 25.49,-112.48l0 -357.21c0,-42.35 -8.59,-79.86 -25.49,-112.2 -17.14,-32.62 -41.2,-57.54 -72.67,-75.27 -31.22,-17.46 -67.56,-26.33 -108.79,-26.33 -41.48,0 -77.85,8.87 -109.03,26.33 -31.5,17.73 -55.53,42.65 -72.71,75.27 -16.89,32.34 -25.48,69.85 -25.48,112.2l0 357.21c0,42.63 8.59,79.83 25.48,112.48 17.18,32.34 41.21,57.23 72.71,74.99 31.18,17.46 67.55,26.33 109.03,26.33zm671.49 -1002.04l280.76 0 453.66 934.2 -20.02 21.77 0 -955.97 219.53 0 0 1218.41 -282.5 0 -451.93 -919.89 20.03 -21.76 0 941.65 -219.53 0 0 -1218.41zm-4627.59 1602.25l229.82 0 0 1219.27 -229.82 0 0 -1219.27zm-667.46 0l229.55 0 0 1219.27 -229.55 0 0 -1219.27zm106.47 504.01l710.11 0 0 221.27 -710.11 0 0 -221.27zm1059.02 -504.01l229.54 0 0 1219.27 -229.54 0 0 -1219.27zm82.99 998.04l733.59 0 0 221.23 -733.59 0 0 -221.23zm0 -494.87l641.42 0 0 221.24 -641.42 0 0 -221.24zm0 -503.17l733.59 0 0 221.51 -733.59 0 0 -221.51zm1370.97 1231.86c-93.87,0 -174.29,-17.73 -240.7,-53.23 -66.41,-35.5 -117.07,-87.3 -151.7,-155.14 -34.63,-67.83 -52.08,-149.68 -52.08,-245.29l0 -778.2 229.82 0 0 783.93c0,70.13 18.6,124.23 56.11,162.86 37.49,38.63 90.44,57.82 158.55,57.82 68.71,0 121.94,-19.19 159.73,-57.82 37.76,-38.63 56.67,-92.73 56.67,-162.86l0 -783.93 229.55 0 0 778.2c0,95.61 -17.46,177.46 -52.4,245.29 -34.91,67.84 -85.57,119.64 -152.53,155.14 -66.69,35.5 -147.11,53.23 -241.02,53.23zm1047.28 0c-58.38,0 -115.06,-6.01 -170.86,-17.73 -55.53,-11.75 -107.92,-28.93 -156.56,-51.53 -48.96,-22.6 -92.73,-49.79 -131.36,-81.57l0 0 106.46 -189.76 0 0c46.94,38.63 101.32,68.42 162.86,89.59 61.26,20.9 124.5,31.19 189.46,31.19 74.71,0 132.81,-12.59 174.32,-38.07 41.49,-25.45 62.1,-61.23 62.1,-107.61l0 -0.87c0,-32.61 -9.14,-58.1 -27.75,-77.26 -18.32,-18.91 -42.38,-32.92 -72.14,-41.79 -29.48,-9.17 -67.55,-17.17 -113.9,-24.34 -1.74,-0.56 -3.44,-0.86 -4.59,-0.86 -1.43,0 -3.13,-0.28 -4.87,-0.84l-18.32 -2.58c-81.57,-12.89 -149.12,-28.92 -202.91,-48.08 -53.54,-19.47 -99.34,-53.26 -136.54,-101.63 -37.48,-48.36 -56.39,-117.06 -56.39,-205.79l0 -0.84c0,-78.72 17.76,-146.27 52.95,-202.08 35.22,-55.8 86.44,-98.46 153.43,-127.94 66.97,-29.18 148.26,-44.09 243.28,-44.09 43.5,0 88.14,5.18 133.65,15.19 45.51,10.02 90.16,24.62 133.69,43.5 43.49,19.19 84.98,42.07 124.19,68.98l0 0 -97.31 194.33 0 0c-46.94,-32.34 -96.17,-57.52 -147.11,-75.28 -51.22,-18.01 -100.17,-26.88 -147.11,-26.88 -70.69,0 -125.07,11.44 -163.73,34.63 -38.63,23.47 -57.81,55.81 -57.81,97.88l0 0.86c0,35.19 10.01,62.97 30.35,83.28 20.02,20.33 44.92,35.5 74.4,44.95 29.77,9.43 71.28,19.44 125.1,30.04 2.26,0.59 4.28,1.15 6.57,1.43 2.29,0.28 4.59,0.59 6.88,1.15 3.14,0.58 6.58,1.42 9.43,2.29 3.16,0.56 6.29,1.43 9.73,2.01 77.29,15.17 141.69,33.49 193.21,54.94 51.81,21.49 95.02,56.12 129.66,103.89 34.63,47.81 52.08,113.07 52.08,195.79l0 1.7c0,77.57 -18.32,144.26 -54.66,199.5 -36.36,55.53 -89.32,97.6 -158.86,126.8 -69.54,28.9 -153.4,43.5 -251.02,43.5zm878.71 -12.59l-238.14 0 0 -1219.27 238.14 0 0 1219.27z"/>
  </g>
  <path class="fil0" d="M58339.61 3453.26c-127.1,127.14 -254.26,254.27 -381.4,381.41 -18.34,18.35 -16.32,57.97 -0.54,73.74l83.27 83.26 -239.73 0c101.13,101.11 265.07,101.11 366.18,0l458.55 -458.54 183.07 -183.07 -262.96 0c-57.01,0 -149.43,46.2 -206.44,103.2z"/>
  <path class="fil1" d="M56686.88 2877.35l1114.33 1114.32c-209.27,209.27 -548.57,209.27 -757.83,0l-949.02 -949.02 -378.93 -378.92 544.23 0c117.97,0 309.26,95.65 427.22,213.62z"/>
  <path class="fil2" d="M58585.85 3310.69l-17.24 0 0 -103.96 -17.46 10.7 0 -17.79 17.46 -11.68 17.24 0 0 122.73zm64.29 -60.9l-0.09 3.01c-1.41,2.58 -3.52,4.48 -6.36,5.7 -2.86,1.21 -6.2,1.83 -10.1,1.83 -5.84,0 -10.99,-1.51 -15.43,-4.49 -4.44,-2.99 -7.89,-7.2 -10.33,-12.62 -2.47,-5.43 -3.66,-11.71 -3.66,-18.87l0 -0.07c0,-7.92 1.31,-14.72 4,-20.34 2.64,-5.61 6.58,-9.91 11.73,-12.83 5.13,-2.95 11.32,-4.4 18.51,-4.4 7.19,0 13.37,1.51 18.5,4.5 5.1,2.96 9.01,7.28 11.67,12.99 2.68,5.68 4.03,12.5 4.03,20.51l0 0.09c0,4.37 -0.57,9.07 -1.69,14.02 -1.12,4.98 -2.74,9.94 -4.82,14.84 -0.34,0.73 -0.66,1.46 -1.03,2.23 -0.33,0.77 -0.71,1.49 -1.07,2.23l-26.16 52.57 -18.58 0 30.88 -60.9zm-11.73 -5.19c5.42,0 9.6,-1.79 12.54,-5.45 2.96,-3.66 4.44,-8.82 4.44,-15.48l0 -0.05c0,-6.48 -1.48,-11.49 -4.44,-15.04 -2.94,-3.56 -7.12,-5.3 -12.54,-5.3 -5.44,0 -9.65,1.74 -12.61,5.3 -2.96,3.55 -4.44,8.57 -4.44,15.09l0 0.08c0,6.66 1.48,11.78 4.44,15.41 2.96,3.65 7.17,5.44 12.61,5.44zm81.7 67.37c-6.86,0 -12.93,-1.28 -18.16,-3.73 -5.23,-2.52 -9.46,-6.16 -12.61,-10.89 -3.16,-4.77 -5.21,-10.5 -6.02,-17.22l0 0 17.54 0 0 0c0.51,3.51 1.6,6.38 3.27,8.62 1.72,2.25 3.9,3.95 6.56,5.03 2.68,1.1 5.82,1.64 9.42,1.64 5.67,0 10.11,-1.52 13.25,-4.53 3.14,-3.06 4.71,-7.31 4.71,-12.86l0 -3.73c0,-6.12 -1.5,-10.84 -4.44,-14.18 -3,-3.38 -7.21,-5.04 -12.69,-5.04l-8.67 0 0 -16.37 8.67 0c4.78,0 8.5,-1.44 11.13,-4.3 2.67,-2.88 3.99,-6.94 3.99,-12.15l0 -3.8c0,-4.84 -1.4,-8.58 -4.19,-11.23 -2.77,-2.67 -6.73,-3.95 -11.85,-3.95 -2.92,0 -5.54,0.54 -7.84,1.62 -2.3,1.11 -4.27,2.78 -5.86,5.06 -1.62,2.3 -2.8,5.16 -3.53,8.57l0 0 -17.48 0 0 0c1.15,-6.7 3.27,-12.44 6.38,-17.22 3.15,-4.79 7.09,-8.4 11.88,-10.89 4.78,-2.47 10.25,-3.71 16.45,-3.71 10.56,0 18.75,2.79 24.57,8.36 5.8,5.58 8.67,13.41 8.67,23.55l0 2.02c0,6.13 -1.63,11.47 -4.96,16.05 -3.33,4.55 -8.03,7.87 -14.1,9.93 6.7,1.49 11.89,4.75 15.57,9.89 3.71,5.12 5.53,11.65 5.53,19.59l0 2.01c0,7.16 -1.38,13.25 -4.16,18.33 -2.74,5.09 -6.76,8.9 -12,11.55 -5.26,2.65 -11.59,3.98 -19.03,3.98zm84.38 0c-6.84,0 -12.89,-1.28 -18.14,-3.73 -5.24,-2.52 -9.46,-6.16 -12.62,-10.89 -3.16,-4.77 -5.18,-10.5 -6.02,-17.22l0 0 17.54 0 0 0c0.54,3.51 1.61,6.38 3.3,8.62 1.7,2.25 3.87,3.95 6.54,5.03 2.66,1.1 5.81,1.64 9.4,1.64 5.68,0 10.12,-1.52 13.25,-4.53 3.16,-3.06 4.73,-7.31 4.73,-12.86l0 -3.73c0,-6.12 -1.5,-10.84 -4.46,-14.18 -3.01,-3.38 -7.2,-5.04 -12.67,-5.04l-8.67 0 0 -16.37 8.67 0c4.77,0 8.49,-1.44 11.15,-4.3 2.65,-2.88 3.99,-6.94 3.99,-12.15l0 -3.8c0,-4.84 -1.43,-8.58 -4.19,-11.23 -2.8,-2.67 -6.73,-3.95 -11.86,-3.95 -2.93,0 -5.55,0.54 -7.85,1.62 -2.3,1.11 -4.28,2.78 -5.88,5.06 -1.62,2.3 -2.75,5.16 -3.52,8.57l0 0 -17.45 0 0 0c1.12,-6.7 3.24,-12.44 6.36,-17.22 3.13,-4.79 7.11,-8.4 11.87,-10.89 4.77,-2.47 10.26,-3.71 16.47,-3.71 10.57,0 18.74,2.79 24.56,8.36 5.8,5.58 8.68,13.41 8.68,23.55l0 2.02c0,6.13 -1.65,11.47 -4.97,16.05 -3.33,4.55 -8.02,7.87 -14.1,9.93 6.7,1.49 11.89,4.75 15.58,9.89 3.68,5.12 5.53,11.65 5.53,19.59l0 2.01c0,7.16 -1.39,13.25 -4.15,18.33 -2.77,5.09 -6.77,8.9 -12.01,11.55 -5.28,2.65 -11.62,3.98 -19.06,3.98z"/>
  <path class="fil0" d="M58339.61 3453.26c-127.1,127.14 -254.26,254.27 -381.4,381.41 -18.34,18.35 -16.32,57.97 -0.54,73.74l83.27 83.26 -239.73 0c101.13,101.11 265.07,101.11 366.18,0l458.55 -458.54 183.07 -183.07 -262.96 0c-57.01,0 -149.43,46.2 -206.44,103.2z"/>
  <path class="fil1" d="M56686.88 2877.35l1114.33 1114.32c-209.27,209.27 -548.57,209.27 -757.83,0l-949.02 -949.02 -378.93 -378.92 544.23 0c117.97,0 309.26,95.65 427.22,213.62z"/>
  <path class="fil2" d="M58585.85 3310.69l-17.24 0 0 -103.96 -17.46 10.7 0 -17.79 17.46 -11.68 17.24 0 0 122.73zm64.29 -60.9l-0.09 3.01c-1.41,2.58 -3.52,4.48 -6.36,5.7 -2.86,1.21 -6.2,1.83 -10.1,1.83 -5.84,0 -10.99,-1.51 -15.43,-4.49 -4.44,-2.99 -7.89,-7.2 -10.33,-12.62 -2.47,-5.43 -3.66,-11.71 -3.66,-18.87l0 -0.07c0,-7.92 1.31,-14.72 4,-20.34 2.64,-5.61 6.58,-9.91 11.73,-12.83 5.13,-2.95 11.32,-4.4 18.51,-4.4 7.19,0 13.37,1.51 18.5,4.5 5.1,2.96 9.01,7.28 11.67,12.99 2.68,5.68 4.03,12.5 4.03,20.51l0 0.09c0,4.37 -0.57,9.07 -1.69,14.02 -1.12,4.98 -2.74,9.94 -4.82,14.84 -0.34,0.73 -0.66,1.46 -1.03,2.23 -0.33,0.77 -0.71,1.49 -1.07,2.23l-26.16 52.57 -18.58 0 30.88 -60.9zm-11.73 -5.19c5.42,0 9.6,-1.79 12.54,-5.45 2.96,-3.66 4.44,-8.82 4.44,-15.48l0 -0.05c0,-6.48 -1.48,-11.49 -4.44,-15.04 -2.94,-3.56 -7.12,-5.3 -12.54,-5.3 -5.44,0 -9.65,1.74 -12.61,5.3 -2.96,3.55 -4.44,8.57 -4.44,15.09l0 0.08c0,6.66 1.48,11.78 4.44,15.41 2.96,3.65 7.17,5.44 12.61,5.44zm81.7 67.37c-6.86,0 -12.93,-1.28 -18.16,-3.73 -5.23,-2.52 -9.46,-6.16 -12.61,-10.89 -3.16,-4.77 -5.21,-10.5 -6.02,-17.22l0 0 17.54 0 0 0c0.51,3.51 1.6,6.38 3.27,8.62 1.72,2.25 3.9,3.95 6.56,5.03 2.68,1.1 5.82,1.64 9.42,1.64 5.67,0 10.11,-1.52 13.25,-4.53 3.14,-3.06 4.71,-7.31 4.71,-12.86l0 -3.73c0,-6.12 -1.5,-10.84 -4.44,-14.18 -3,-3.38 -7.21,-5.04 -12.69,-5.04l-8.67 0 0 -16.37 8.67 0c4.78,0 8.5,-1.44 11.13,-4.3 2.67,-2.88 3.99,-6.94 3.99,-12.15l0 -3.8c0,-4.84 -1.4,-8.58 -4.19,-11.23 -2.77,-2.67 -6.73,-3.95 -11.85,-3.95 -2.92,0 -5.54,0.54 -7.84,1.62 -2.3,1.11 -4.27,2.78 -5.86,5.06 -1.62,2.3 -2.8,5.16 -3.53,8.57l0 0 -17.48 0 0 0c1.15,-6.7 3.27,-12.44 6.38,-17.22 3.15,-4.79 7.09,-8.4 11.88,-10.89 4.78,-2.47 10.25,-3.71 16.45,-3.71 10.56,0 18.75,2.79 24.57,8.36 5.8,5.58 8.67,13.41 8.67,23.55l0 2.02c0,6.13 -1.63,11.47 -4.96,16.05 -3.33,4.55 -8.03,7.87 -14.1,9.93 6.7,1.49 11.89,4.75 15.57,9.89 3.71,5.12 5.53,11.65 5.53,19.59l0 2.01c0,7.16 -1.38,13.25 -4.16,18.33 -2.74,5.09 -6.76,8.9 -12,11.55 -5.26,2.65 -11.59,3.98 -19.03,3.98zm84.38 0c-6.84,0 -12.89,-1.28 -18.14,-3.73 -5.24,-2.52 -9.46,-6.16 -12.62,-10.89 -3.16,-4.77 -5.18,-10.5 -6.02,-17.22l0 0 17.54 0 0 0c0.54,3.51 1.61,6.38 3.3,8.62 1.7,2.25 3.87,3.95 6.54,5.03 2.66,1.1 5.81,1.64 9.4,1.64 5.68,0 10.12,-1.52 13.25,-4.53 3.16,-3.06 4.73,-7.31 4.73,-12.86l0 -3.73c0,-6.12 -1.5,-10.84 -4.46,-14.18 -3.01,-3.38 -7.2,-5.04 -12.67,-5.04l-8.67 0 0 -16.37 8.67 0c4.77,0 8.49,-1.44 11.15,-4.3 2.65,-2.88 3.99,-6.94 3.99,-12.15l0 -3.8c0,-4.84 -1.43,-8.58 -4.19,-11.23 -2.8,-2.67 -6.73,-3.95 -11.86,-3.95 -2.93,0 -5.55,0.54 -7.85,1.62 -2.3,1.11 -4.28,2.78 -5.88,5.06 -1.62,2.3 -2.75,5.16 -3.52,8.57l0 0 -17.45 0 0 0c1.12,-6.7 3.24,-12.44 6.36,-17.22 3.13,-4.79 7.11,-8.4 11.87,-10.89 4.77,-2.47 10.26,-3.71 16.47,-3.71 10.57,0 18.74,2.79 24.56,8.36 5.8,5.58 8.68,13.41 8.68,23.55l0 2.02c0,6.13 -1.65,11.47 -4.97,16.05 -3.33,4.55 -8.02,7.87 -14.1,9.93 6.7,1.49 11.89,4.75 15.58,9.89 3.68,5.12 5.53,11.65 5.53,19.59l0 2.01c0,7.16 -1.39,13.25 -4.15,18.33 -2.77,5.09 -6.77,8.9 -12.01,11.55 -5.28,2.65 -11.62,3.98 -19.06,3.98z"/>
  <g id="_2895724237552">
   <path class="fil3" d="M53740.26 6634.91c-118.49,0 -224.25,-20.56 -317.77,-62.18 -78.53,-35.13 -142.42,-82.48 -191.35,-141.74l0.01 -0.01 -0.06 -0.06c-1.72,-2.09 -3.43,-4.2 -5.12,-6.32 -9.8,-15.04 -8.25,-35.31 4.65,-48.69l-1.01 -1.01 220.63 -202.63c13.34,-6.51 29.6,-5.03 41.61,4.46 28.46,25.67 61.17,46.2 98.1,61.59 46.51,19.58 95.47,29.37 145.9,29.37 82.26,0 149.83,-22.52 201.73,-67.08 52.39,-45.04 78.34,-107.22 78.34,-186.54l0 -1433.98c0,-21.47 17.2,-38.92 38.57,-39.32l316.03 0c21.38,0.4 38.57,17.85 38.57,39.32l0 1405.08c0,136.61 -26.44,254.12 -78.34,351.56 -52.39,97.44 -128.28,171.86 -228.16,222.29 -99.89,50.92 -220.83,75.89 -362.33,75.89zm-70.01 -583.64c-105.27,0 -195.37,-25.45 -270.77,-75.89 -74.91,-50.92 -132.2,-124.36 -171.37,-220.33 -39.17,-95.96 -58.76,-212.01 -58.76,-347.63l0 -238.46c0,-136.6 19.59,-253.62 58.76,-351.55 39.17,-97.44 96.46,-171.37 171.37,-222.29 75.4,-50.43 165.5,-75.89 270.77,-75.89 79.32,0 151.78,23.5 217.39,71 65.12,47.49 118,114.57 158.15,201.72l-29.87 330.01c0,-50.92 -8.81,-94.01 -25.95,-129.26 -17.14,-35.26 -42.11,-62.67 -75.4,-81.28 -32.81,-18.6 -72.96,-27.91 -119.47,-27.91 -73.93,0 -130.73,24.97 -171.37,75.4 -40.64,50.44 -61.21,120.94 -61.21,211.52l0 236.99c0,88.62 20.57,157.66 61.21,206.13 40.64,48.96 97.44,73.44 171.37,73.44 46.51,0 86.66,-9.3 119.47,-27.41 33.29,-18.12 58.26,-44.56 75.4,-78.84 17.14,-34.27 25.95,-75.89 25.95,-124.85l20.07 339.8c-30.84,81.28 -77.36,144.44 -140.52,189 -63.16,44.55 -138.56,66.58 -225.22,66.58zm1025.65 -1510.5l316.02 0c21.38,0.4 38.58,17.85 38.58,39.32l0 1410.33c0,21.47 -17.2,38.92 -38.58,39.31l-316.02 0c-21.38,-0.39 -38.58,-17.84 -38.58,-39.31l0 -1410.33c0,-21.47 17.2,-38.92 38.58,-39.32zm822.19 586.58c0,-72.47 -21.05,-128.78 -62.18,-168.92 -41.62,-40.64 -100.87,-60.72 -177.25,-60.72 -72.95,0 -128.77,20.56 -168.92,61.2 -39.66,40.65 -59.24,97.93 -59.24,171.38l-30.36 -330.01c45.05,-93.53 98.9,-164.03 161.57,-210.55 62.68,-47 141.51,-70.5 236.01,-70.5 156.68,0 278.11,52.88 364.28,158.64 86.17,105.76 129.26,255.09 129.26,448.01l0 864.54 -6.27 0c0,21.47 -17.2,38.92 -38.57,39.31l-309.76 0c-21.37,-0.39 -38.57,-17.84 -38.57,-39.31l0 -863.07zm680.46 -1183.43l316.03 0c21.38,0.39 38.57,17.84 38.57,39.31l0 2007.19c0,21.47 -17.19,38.92 -38.57,39.31l-316.03 0c-21.37,-0.39 -38.57,-17.84 -38.57,-39.31l0 -2007.19c0,-21.47 17.2,-38.92 38.57,-39.31zm822.2 1183.43c0,-72.47 -21.06,-128.78 -62.19,-168.92 -41.61,-40.64 -100.86,-60.72 -177.24,-60.72 -72.96,0 -128.77,20.56 -168.93,61.2 -39.66,40.65 -59.24,97.93 -59.24,171.38l-30.35 -330.01c45.04,-93.53 98.9,-164.03 161.57,-210.55 62.68,-47 141.51,-70.5 236,-70.5 156.68,0 278.11,52.88 364.29,158.64 86.17,105.76 129.26,255.09 129.26,448.01l0 864.54c0,21.47 -17.2,38.92 -38.57,39.31l-316.03 0c-21.38,-0.39 -38.57,-17.84 -38.57,-39.31l0 -863.07z"/>
   <path class="fil3" d="M57706.38 4695.86l91.75 0 0 601.08 -91.75 0 0 -601.08zm-185.2 -53.64l461.99 0 0 87.45 -461.99 0 0 -87.45zm643.97 654.72l-91.91 0 0 -654.72 91.91 0 0 654.72zm632.59 -654.72l85.92 0 0 654.72 -89.61 0 0 -490.27 4.61 28.74 -161.22 370.55 -63.94 0 -161.21 -361.48 4.45 -37.81 0 490.27 -89.6 0 0 -654.72 86.06 0 192.27 432.33 192.27 -432.33zm248.05 0l91.9 0 0 654.72 -91.9 0 0 -654.72zm44.56 567.43l376.08 0 0 87.29 -376.08 0 0 -87.29zm0 -281.41l326.45 0 0 87.29 -326.45 0 0 -87.29zm0 -286.02l376.08 0 0 87.45 -376.08 0 0 -87.45z"/>
   <path class="fil3" d="M57709.64 5374.75l91.91 0 0 654.72 -91.91 0 0 -654.72zm45.95 567.43l374.7 0 0 87.29 -374.7 0 0 -87.29zm681.31 94.05c-45.65,0 -85.91,-9.99 -120.8,-29.97 -34.73,-19.97 -61.63,-48.1 -80.84,-84.68 -19.06,-36.43 -28.59,-78.69 -28.59,-126.64l0 -185.5c0,-48.11 9.53,-90.38 28.59,-126.8 19.21,-36.42 46.11,-64.7 80.84,-84.68 34.89,-19.99 75.15,-29.97 120.8,-29.97 45.5,0 85.76,9.98 120.65,29.97 34.73,19.98 61.78,48.26 80.84,84.68 19.06,36.42 28.59,78.69 28.59,126.8l0 185.5c0,47.95 -9.53,90.21 -28.59,126.64 -19.06,36.58 -46.11,64.71 -80.84,84.68 -34.89,19.98 -75.15,29.97 -120.65,29.97zm0 -90.52c26.9,0 50.72,-5.99 71.32,-18.28 20.59,-12.15 36.42,-29.36 47.64,-51.65 11.37,-22.44 16.9,-48.25 16.9,-77.76l0 -191.81c0,-29.36 -5.53,-55.33 -16.9,-77.62 -11.22,-22.44 -27.05,-39.64 -47.64,-51.79 -20.6,-12.14 -44.42,-18.29 -71.32,-18.29 -27.05,0 -50.87,6.15 -71.46,18.29 -20.6,12.15 -36.43,29.35 -47.65,51.79 -11.37,22.29 -16.9,48.26 -16.9,77.62l0 191.81c0,29.51 5.53,55.32 16.9,77.76 11.22,22.29 27.05,39.5 47.65,51.65 20.59,12.29 44.41,18.28 71.46,18.28zm808.1 -268.8l0 114.34c0,48.72 -9.38,91.45 -28.28,128.64 -18.91,37.04 -45.64,65.63 -80.38,85.92 -34.73,20.28 -74.84,30.42 -120.48,30.42 -46.26,0 -86.84,-9.52 -121.73,-28.58 -35.04,-19.06 -62.09,-45.95 -81.3,-80.84 -19.22,-34.89 -28.9,-75.16 -28.9,-121.11l0 -193.19c0,-48.56 9.53,-91.45 28.44,-128.33 18.9,-36.89 45.64,-65.47 80.38,-85.76 34.74,-20.29 74.85,-30.43 120.49,-30.43 37.5,0 72.08,8.15 103.74,24.13 31.65,16.14 58.09,38.73 79.45,68.24 21.36,29.35 35.65,63.47 43.19,102.2l0 0 -99.44 0 0 0c-5.38,-21.98 -14.59,-40.72 -27.51,-56.56 -12.9,-15.67 -27.97,-27.66 -45.48,-35.96 -17.37,-8.3 -35.35,-12.45 -53.95,-12.45 -27.04,0 -50.72,6.46 -71.15,19.37 -20.45,12.9 -36.28,31.04 -47.34,54.25 -11.07,23.36 -16.6,50.41 -16.6,81.3l0 193.19c0,28.28 5.68,52.87 17.05,74.08 11.38,21.21 27.52,37.65 48.42,49.34 20.9,11.67 45.03,17.51 72.24,17.51 27.04,0 50.72,-6.14 71.15,-18.29 20.44,-12.14 36.11,-29.81 47.33,-52.87 11.06,-23.05 16.6,-50.56 16.6,-82.37l0 -28.44 -132.78 0 0 -87.75 226.84 0z"/>
  </g>
  <path class="fil0" d="M58339.61 11183.71c-127.1,127.14 -254.26,254.27 -381.4,381.41 -18.34,18.35 -16.32,57.97 -0.54,73.74l83.27 83.26 -239.73 0c101.13,101.11 265.07,101.11 366.18,0l458.55 -458.54 183.07 -183.07 -262.96 0c-57.01,0 -149.43,46.2 -206.44,103.2z"/>
  <path class="fil1" d="M56686.88 10607.8l1114.33 1114.32c-209.27,209.27 -548.57,209.27 -757.83,0l-949.02 -949.02 -378.93 -378.92 544.23 0c117.97,0 309.26,95.65 427.22,213.62z"/>
  <path class="fil2" d="M58585.85 11041.14l-17.24 0 0 -103.96 -17.46 10.7 0 -17.79 17.46 -11.68 17.24 0 0 122.73zm64.29 -60.9l-0.09 3.01c-1.41,2.58 -3.52,4.48 -6.36,5.7 -2.86,1.21 -6.2,1.83 -10.1,1.83 -5.84,0 -10.99,-1.51 -15.43,-4.49 -4.44,-2.99 -7.89,-7.2 -10.33,-12.62 -2.47,-5.43 -3.66,-11.71 -3.66,-18.87l0 -0.07c0,-7.92 1.31,-14.72 4,-20.34 2.64,-5.61 6.58,-9.91 11.73,-12.83 5.13,-2.95 11.32,-4.4 18.51,-4.4 7.19,0 13.37,1.51 18.5,4.5 5.1,2.96 9.01,7.28 11.67,12.99 2.68,5.68 4.03,12.5 4.03,20.51l0 0.09c0,4.37 -0.57,9.07 -1.69,14.02 -1.12,4.98 -2.74,9.94 -4.82,14.84 -0.34,0.73 -0.66,1.46 -1.03,2.23 -0.33,0.77 -0.71,1.49 -1.07,2.23l-26.16 52.57 -18.58 0 30.88 -60.9zm-11.73 -5.19c5.42,0 9.6,-1.79 12.54,-5.45 2.96,-3.66 4.44,-8.82 4.44,-15.48l0 -0.05c0,-6.48 -1.48,-11.49 -4.44,-15.04 -2.94,-3.56 -7.12,-5.3 -12.54,-5.3 -5.44,0 -9.65,1.74 -12.61,5.3 -2.96,3.55 -4.44,8.57 -4.44,15.09l0 0.08c0,6.66 1.48,11.78 4.44,15.41 2.96,3.65 7.17,5.44 12.61,5.44zm81.7 67.37c-6.86,0 -12.93,-1.28 -18.16,-3.73 -5.23,-2.52 -9.46,-6.16 -12.61,-10.89 -3.16,-4.77 -5.21,-10.5 -6.02,-17.22l0 0 17.54 0 0 0c0.51,3.51 1.6,6.38 3.27,8.62 1.72,2.25 3.9,3.95 6.56,5.03 2.68,1.1 5.82,1.64 9.42,1.64 5.67,0 10.11,-1.52 13.25,-4.53 3.14,-3.06 4.71,-7.31 4.71,-12.86l0 -3.73c0,-6.12 -1.5,-10.84 -4.44,-14.18 -3,-3.38 -7.21,-5.04 -12.69,-5.04l-8.67 0 0 -16.37 8.67 0c4.78,0 8.5,-1.44 11.13,-4.3 2.67,-2.88 3.99,-6.94 3.99,-12.15l0 -3.8c0,-4.84 -1.4,-8.58 -4.19,-11.23 -2.77,-2.67 -6.73,-3.95 -11.85,-3.95 -2.92,0 -5.54,0.54 -7.84,1.62 -2.3,1.11 -4.27,2.78 -5.86,5.06 -1.62,2.3 -2.8,5.16 -3.53,8.57l0 0 -17.48 0 0 0c1.15,-6.7 3.27,-12.44 6.38,-17.22 3.15,-4.79 7.09,-8.4 11.88,-10.89 4.78,-2.47 10.25,-3.71 16.45,-3.71 10.56,0 18.75,2.79 24.57,8.36 5.8,5.58 8.67,13.41 8.67,23.55l0 2.02c0,6.13 -1.63,11.47 -4.96,16.05 -3.33,4.55 -8.03,7.87 -14.1,9.93 6.7,1.49 11.89,4.75 15.57,9.89 3.71,5.12 5.53,11.65 5.53,19.59l0 2.01c0,7.16 -1.38,13.25 -4.16,18.33 -2.74,5.09 -6.76,8.9 -12,11.55 -5.26,2.65 -11.59,3.98 -19.03,3.98zm84.38 0c-6.84,0 -12.89,-1.28 -18.14,-3.73 -5.24,-2.52 -9.46,-6.16 -12.62,-10.89 -3.16,-4.77 -5.18,-10.5 -6.02,-17.22l0 0 17.54 0 0 0c0.54,3.51 1.61,6.38 3.3,8.62 1.7,2.25 3.87,3.95 6.54,5.03 2.66,1.1 5.81,1.64 9.4,1.64 5.68,0 10.12,-1.52 13.25,-4.53 3.16,-3.06 4.73,-7.31 4.73,-12.86l0 -3.73c0,-6.12 -1.5,-10.84 -4.46,-14.18 -3.01,-3.38 -7.2,-5.04 -12.67,-5.04l-8.67 0 0 -16.37 8.67 0c4.77,0 8.49,-1.44 11.15,-4.3 2.65,-2.88 3.99,-6.94 3.99,-12.15l0 -3.8c0,-4.84 -1.43,-8.58 -4.19,-11.23 -2.8,-2.67 -6.73,-3.95 -11.86,-3.95 -2.93,0 -5.55,0.54 -7.85,1.62 -2.3,1.11 -4.28,2.78 -5.88,5.06 -1.62,2.3 -2.75,5.16 -3.52,8.57l0 0 -17.45 0 0 0c1.12,-6.7 3.24,-12.44 6.36,-17.22 3.13,-4.79 7.11,-8.4 11.87,-10.89 4.77,-2.47 10.26,-3.71 16.47,-3.71 10.57,0 18.74,2.79 24.56,8.36 5.8,5.58 8.68,13.41 8.68,23.55l0 2.02c0,6.13 -1.65,11.47 -4.97,16.05 -3.33,4.55 -8.02,7.87 -14.1,9.93 6.7,1.49 11.89,4.75 15.58,9.89 3.68,5.12 5.53,11.65 5.53,19.59l0 2.01c0,7.16 -1.39,13.25 -4.15,18.33 -2.77,5.09 -6.77,8.9 -12.01,11.55 -5.28,2.65 -11.62,3.98 -19.06,3.98z"/>
  <path class="fil0" d="M58339.61 11183.71c-127.1,127.14 -254.26,254.27 -381.4,381.41 -18.34,18.35 -16.32,57.97 -0.54,73.74l83.27 83.26 -239.73 0c101.13,101.11 265.07,101.11 366.18,0l458.55 -458.54 183.07 -183.07 -262.96 0c-57.01,0 -149.43,46.2 -206.44,103.2z"/>
  <path class="fil1" d="M56686.88 10607.8l1114.33 1114.32c-209.27,209.27 -548.57,209.27 -757.83,0l-949.02 -949.02 -378.93 -378.92 544.23 0c117.97,0 309.26,95.65 427.22,213.62z"/>
  <path class="fil2" d="M58585.85 11041.14l-17.24 0 0 -103.96 -17.46 10.7 0 -17.79 17.46 -11.68 17.24 0 0 122.73zm64.29 -60.9l-0.09 3.01c-1.41,2.58 -3.52,4.48 -6.36,5.7 -2.86,1.21 -6.2,1.83 -10.1,1.83 -5.84,0 -10.99,-1.51 -15.43,-4.49 -4.44,-2.99 -7.89,-7.2 -10.33,-12.62 -2.47,-5.43 -3.66,-11.71 -3.66,-18.87l0 -0.07c0,-7.92 1.31,-14.72 4,-20.34 2.64,-5.61 6.58,-9.91 11.73,-12.83 5.13,-2.95 11.32,-4.4 18.51,-4.4 7.19,0 13.37,1.51 18.5,4.5 5.1,2.96 9.01,7.28 11.67,12.99 2.68,5.68 4.03,12.5 4.03,20.51l0 0.09c0,4.37 -0.57,9.07 -1.69,14.02 -1.12,4.98 -2.74,9.94 -4.82,14.84 -0.34,0.73 -0.66,1.46 -1.03,2.23 -0.33,0.77 -0.71,1.49 -1.07,2.23l-26.16 52.57 -18.58 0 30.88 -60.9zm-11.73 -5.19c5.42,0 9.6,-1.79 12.54,-5.45 2.96,-3.66 4.44,-8.82 4.44,-15.48l0 -0.05c0,-6.48 -1.48,-11.49 -4.44,-15.04 -2.94,-3.56 -7.12,-5.3 -12.54,-5.3 -5.44,0 -9.65,1.74 -12.61,5.3 -2.96,3.55 -4.44,8.57 -4.44,15.09l0 0.08c0,6.66 1.48,11.78 4.44,15.41 2.96,3.65 7.17,5.44 12.61,5.44zm81.7 67.37c-6.86,0 -12.93,-1.28 -18.16,-3.73 -5.23,-2.52 -9.46,-6.16 -12.61,-10.89 -3.16,-4.77 -5.21,-10.5 -6.02,-17.22l0 0 17.54 0 0 0c0.51,3.51 1.6,6.38 3.27,8.62 1.72,2.25 3.9,3.95 6.56,5.03 2.68,1.1 5.82,1.64 9.42,1.64 5.67,0 10.11,-1.52 13.25,-4.53 3.14,-3.06 4.71,-7.31 4.71,-12.86l0 -3.73c0,-6.12 -1.5,-10.84 -4.44,-14.18 -3,-3.38 -7.21,-5.04 -12.69,-5.04l-8.67 0 0 -16.37 8.67 0c4.78,0 8.5,-1.44 11.13,-4.3 2.67,-2.88 3.99,-6.94 3.99,-12.15l0 -3.8c0,-4.84 -1.4,-8.58 -4.19,-11.23 -2.77,-2.67 -6.73,-3.95 -11.85,-3.95 -2.92,0 -5.54,0.54 -7.84,1.62 -2.3,1.11 -4.27,2.78 -5.86,5.06 -1.62,2.3 -2.8,5.16 -3.53,8.57l0 0 -17.48 0 0 0c1.15,-6.7 3.27,-12.44 6.38,-17.22 3.15,-4.79 7.09,-8.4 11.88,-10.89 4.78,-2.47 10.25,-3.71 16.45,-3.71 10.56,0 18.75,2.79 24.57,8.36 5.8,5.58 8.67,13.41 8.67,23.55l0 2.02c0,6.13 -1.63,11.47 -4.96,16.05 -3.33,4.55 -8.03,7.87 -14.1,9.93 6.7,1.49 11.89,4.75 15.57,9.89 3.71,5.12 5.53,11.65 5.53,19.59l0 2.01c0,7.16 -1.38,13.25 -4.16,18.33 -2.74,5.09 -6.76,8.9 -12,11.55 -5.26,2.65 -11.59,3.98 -19.03,3.98zm84.38 0c-6.84,0 -12.89,-1.28 -18.14,-3.73 -5.24,-2.52 -9.46,-6.16 -12.62,-10.89 -3.16,-4.77 -5.18,-10.5 -6.02,-17.22l0 0 17.54 0 0 0c0.54,3.51 1.61,6.38 3.3,8.62 1.7,2.25 3.87,3.95 6.54,5.03 2.66,1.1 5.81,1.64 9.4,1.64 5.68,0 10.12,-1.52 13.25,-4.53 3.16,-3.06 4.73,-7.31 4.73,-12.86l0 -3.73c0,-6.12 -1.5,-10.84 -4.46,-14.18 -3.01,-3.38 -7.2,-5.04 -12.67,-5.04l-8.67 0 0 -16.37 8.67 0c4.77,0 8.49,-1.44 11.15,-4.3 2.65,-2.88 3.99,-6.94 3.99,-12.15l0 -3.8c0,-4.84 -1.43,-8.58 -4.19,-11.23 -2.8,-2.67 -6.73,-3.95 -11.86,-3.95 -2.93,0 -5.55,0.54 -7.85,1.62 -2.3,1.11 -4.28,2.78 -5.88,5.06 -1.62,2.3 -2.75,5.16 -3.52,8.57l0 0 -17.45 0 0 0c1.12,-6.7 3.24,-12.44 6.36,-17.22 3.13,-4.79 7.11,-8.4 11.87,-10.89 4.77,-2.47 10.26,-3.71 16.47,-3.71 10.57,0 18.74,2.79 24.56,8.36 5.8,5.58 8.68,13.41 8.68,23.55l0 2.02c0,6.13 -1.65,11.47 -4.97,16.05 -3.33,4.55 -8.02,7.87 -14.1,9.93 6.7,1.49 11.89,4.75 15.58,9.89 3.68,5.12 5.53,11.65 5.53,19.59l0 2.01c0,7.16 -1.39,13.25 -4.15,18.33 -2.77,5.09 -6.77,8.9 -12.01,11.55 -5.28,2.65 -11.62,3.98 -19.06,3.98z"/>
  <path class="fil3" d="M53740.26 14365.36c-118.49,0 -224.25,-20.57 -317.77,-62.18 -78.54,-35.14 -142.42,-82.49 -191.35,-141.75l0.01 -0.01 -0.06 -0.05c-1.72,-2.1 -3.43,-4.2 -5.12,-6.32 -9.8,-15.04 -8.25,-35.32 4.65,-48.7l-1.01 -1.01 220.63 -202.62c13.34,-6.52 29.6,-5.03 41.61,4.46 28.46,25.66 61.16,46.19 98.09,61.58 46.52,19.58 95.48,29.38 145.91,29.38 82.26,0 149.83,-22.53 201.72,-67.09 52.4,-45.04 78.35,-107.22 78.35,-186.54l0 -1433.98c0,-21.47 17.2,-38.92 38.57,-39.31l316.03 0c21.37,0.39 38.57,17.84 38.57,39.31l0 1405.09c0,136.61 -26.44,254.12 -78.34,351.56 -52.39,97.43 -128.28,171.85 -228.17,222.29 -99.88,50.92 -220.82,75.89 -362.32,75.89zm-70.02 -583.64c-105.27,0 -195.36,-25.46 -270.77,-75.89 -74.9,-50.92 -132.19,-124.37 -171.37,-220.34 -39.16,-95.96 -58.75,-212 -58.75,-347.63l0 -238.45c0,-136.61 19.59,-253.63 58.75,-351.55 39.18,-97.44 96.47,-171.37 171.37,-222.29 75.41,-50.44 165.5,-75.9 270.77,-75.9 79.32,0 151.78,23.5 217.39,71 65.13,47.5 118.01,114.57 158.16,201.72l-29.87 330.01c0,-50.91 -8.82,-94 -25.95,-129.26 -17.14,-35.25 -42.11,-62.67 -75.41,-81.27 -32.8,-18.61 -72.95,-27.91 -119.46,-27.91 -73.94,0 -130.73,24.97 -171.37,75.4 -40.64,50.43 -61.21,120.94 -61.21,211.52l0 236.98c0,88.62 20.57,157.66 61.21,206.13 40.64,48.96 97.43,73.45 171.37,73.45 46.51,0 86.66,-9.31 119.46,-27.42 33.3,-18.12 58.27,-44.56 75.41,-78.83 17.13,-34.27 25.95,-75.89 25.95,-124.86l20.07 339.81c-30.85,81.27 -77.36,144.43 -140.52,188.99 -63.16,44.56 -138.56,66.59 -225.23,66.59zm1025.65 -1510.5l316.03 0c21.37,0.39 38.57,17.84 38.57,39.31l0 1410.33c0,21.48 -17.2,38.92 -38.57,39.32l-316.03 0c-21.37,-0.4 -38.57,-17.84 -38.57,-39.32l0 -1410.33c0,-21.47 17.2,-38.92 38.57,-39.31zm822.2 586.58c0,-72.47 -21.06,-128.78 -62.19,-168.93 -41.61,-40.64 -100.86,-60.71 -177.24,-60.71 -72.96,0 -128.78,20.56 -168.93,61.2 -39.66,40.64 -59.24,97.93 -59.24,171.37l-30.35 -330.01c45.04,-93.52 98.9,-164.02 161.57,-210.54 62.68,-47.01 141.5,-70.51 236,-70.51 156.68,0 278.11,52.88 364.29,158.64 86.17,105.76 129.26,255.1 129.26,448.02l0 864.53 -6.28 0c0,21.48 -17.2,38.92 -38.57,39.32l-309.75 0c-21.38,-0.4 -38.57,-17.84 -38.57,-39.32l0 -863.06zm680.46 -1183.44l316.02 0c21.38,0.4 38.58,17.84 38.58,39.32l0 2007.18c0,21.48 -17.2,38.92 -38.58,39.32l-316.02 0c-21.38,-0.4 -38.58,-17.84 -38.58,-39.32l0 -2007.18c0,-21.48 17.2,-38.92 38.58,-39.32zm822.19 1183.44c0,-72.47 -21.06,-128.78 -62.19,-168.93 -41.61,-40.64 -100.86,-60.71 -177.24,-60.71 -72.95,0 -128.77,20.56 -168.92,61.2 -39.66,40.64 -59.24,97.93 -59.24,171.37l-30.36 -330.01c45.04,-93.52 98.9,-164.02 161.57,-210.54 62.68,-47.01 141.51,-70.51 236,-70.51 156.68,0 278.12,52.88 364.29,158.64 86.17,105.76 129.26,255.1 129.26,448.02l0 864.53c0,21.48 -17.2,38.92 -38.57,39.32l-316.03 0c-21.37,-0.4 -38.57,-17.84 -38.57,-39.32l0 -863.06z"/>
  <path class="fil3" d="M57749.74 12663.14l223.32 0c17.36,0 32.89,-4.15 46.41,-12.6 13.52,-8.46 23.98,-20.29 31.35,-35.81 7.23,-15.53 10.92,-33.2 10.92,-53.33l0 0c0,-20.13 -3.69,-37.96 -10.92,-53.33 -7.37,-15.52 -17.83,-27.51 -31.2,-35.81 -13.21,-8.46 -28.89,-12.6 -46.56,-12.6l-223.32 0 0 -87.46 219.78 0c37.81,0 71.01,7.84 99.74,23.52 28.6,15.52 50.88,37.66 66.55,66.39 15.84,28.59 23.67,61.78 23.67,99.29l0 0c0,37.5 -7.99,70.54 -23.82,99.28 -15.99,28.58 -38.27,50.72 -66.86,66.39 -28.74,15.53 -61.78,23.37 -99.28,23.37l-219.78 0 0 -87.3zm-40.11 -290.94l91.91 0 0 655.19 -91.91 0 0 -655.19zm218.39 357.95l91.45 -20.59 167.52 317.83 -108.96 0 -150.01 -297.24zm585.42 304c-48.42,0 -89.77,-9.53 -124.04,-28.59 -34.42,-19.05 -60.55,-46.87 -78.53,-83.3 -18.14,-36.42 -27.05,-80.38 -27.05,-131.71l0 -417.88 91.76 0 0 420.96c0,47.79 12.13,84.68 36.11,110.81 23.98,26.12 57.94,39.19 101.75,39.19 44.11,0 78.23,-13.07 102.35,-39.19 24.28,-26.13 36.27,-63.02 36.27,-110.81l0 -420.96 91.91 0 0 417.88c0,51.33 -9.07,95.29 -27.05,131.71 -17.98,36.43 -44.26,64.25 -78.85,83.3 -34.42,19.06 -76.07,28.59 -124.63,28.59zm562.35 0c-31.51,0 -61.48,-3.08 -89.6,-9.07 -28.28,-5.99 -54.56,-14.91 -79.15,-26.89 -24.44,-12.15 -47.34,-27.05 -68.55,-45.04l0 0 57.17 -70.23 0 0c24.9,21.52 52.41,37.81 82.38,48.56 29.97,10.76 62.55,16.14 97.75,16.14 47.33,0 84.05,-8.76 110.18,-26.28 26.13,-17.52 39.19,-42.42 39.19,-74.54l0 -0.46c0,-22.75 -5.83,-40.89 -17.67,-54.25 -11.98,-13.37 -27.2,-23.21 -45.96,-29.66 -18.74,-6.46 -43.02,-12.46 -72.68,-17.83 -0.92,-0.31 -2,-0.46 -2.91,-0.46 -1.09,0 -2.16,-0.16 -3.09,-0.47l-6.61 -1.22c-43.95,-7.54 -79.6,-15.99 -106.96,-25.52 -27.51,-9.53 -51.02,-26.74 -70.54,-51.79 -19.52,-25.06 -29.2,-60.71 -29.2,-106.97l0 -0.46c0,-40.42 9.06,-75 27.2,-103.74 18.13,-28.59 44.72,-50.57 79.46,-65.48 34.88,-15.06 76.69,-22.59 125.71,-22.59 23.36,0 46.41,2.61 69.01,7.68 22.74,5.08 45.02,12.77 67.16,22.75 21.97,9.99 43.65,22.75 65.01,38.12l0 0 -52.26 72.85 0 0c-24.9,-18.29 -49.64,-31.97 -74.54,-41.19 -24.74,-9.07 -49.48,-13.68 -74.38,-13.68 -44.72,0 -79.61,8.92 -104.35,26.74 -24.74,17.83 -37.04,43.19 -37.04,75.92l0 0.47c0,22.43 6.3,40.11 19.06,53.02 12.76,12.91 28.74,22.44 47.79,28.58 19.07,6.15 45.5,12.61 79.46,19.21 1.22,0.31 2.3,0.47 3.38,0.62 1.07,0.16 2.14,0.47 3.38,0.77 1.38,0.3 3.07,0.61 4.92,0.92 1.84,0.31 3.38,0.47 4.92,0.78 39.64,8.14 72.69,17.82 99.28,28.89 26.59,11.06 48.87,29.04 66.7,53.79 17.82,24.74 26.74,58.55 26.74,101.59l0 0.91c0,39.81 -9.37,73.93 -28.28,102.37 -19.05,28.43 -46.41,49.94 -82.23,64.85 -35.96,14.91 -79.14,22.29 -129.85,22.29zm733.85 -661.48l91.91 0 0 654.72 -91.91 0 0 -654.72zm-371.92 0l91.9 0 0 654.72 -91.9 0 0 -654.72zm57.17 288.62l363.47 0 0 87.46 -363.47 0 0 -87.46zm-1570.86 1105.39c-45.34,0 -85.15,-9.99 -119.57,-30.12 -34.43,-20.14 -61.02,-48.72 -79.92,-85.61 -18.91,-36.88 -28.44,-79.77 -28.44,-128.33l0 -179.66c0,-48.57 9.53,-91.46 28.44,-128.34 18.9,-36.88 45.49,-65.47 79.92,-85.76 34.42,-20.28 74.23,-30.43 119.57,-30.43 37.5,0 72.08,8.15 103.59,24.13 31.5,16.14 57.78,38.74 78.99,68.25 21.21,29.35 35.51,63.47 43.04,102.19l0 0 -94.21 0 0 0c-5.69,-20.43 -15.22,-38.72 -28.59,-54.71 -13.38,-16.14 -29.05,-28.43 -47.03,-37.19 -17.98,-8.61 -36.58,-13.07 -55.79,-13.07 -26.75,0 -50.1,6.46 -70.24,19.37 -20.13,12.91 -35.81,31.04 -46.87,54.25 -11.07,23.36 -16.6,50.41 -16.6,81.31l0 179.66c0,30.58 5.53,57.63 16.6,80.99 11.06,23.52 26.74,41.5 46.87,54.26 20.14,12.75 43.49,19.2 70.24,19.2 19.52,0 38.12,-3.99 56.1,-12.13 17.83,-8.15 33.34,-20.14 46.72,-36.12 13.37,-15.83 22.9,-34.74 28.59,-56.72l0 0 94.21 0 0 0c-7.53,38.74 -21.99,72.86 -43.35,102.21 -21.21,29.51 -47.64,52.26 -79.14,68.24 -31.51,16.13 -65.94,24.13 -103.13,24.13zm507.49 -661.48l78.22 0 241.45 654.72 -99.13 0 -181.51 -528.23 -181.35 528.23 -99.14 0 241.46 -654.72zm-130.19 423.72l344.43 0 0 87.3 -344.43 0 0 -87.3zm588.95 -133.25l223.31 0c17.36,0 32.89,-4.15 46.4,-12.6 13.53,-8.46 23.99,-20.29 31.36,-35.81 7.23,-15.53 10.91,-33.2 10.91,-53.33l0 0c0,-20.13 -3.68,-37.96 -10.91,-53.33 -7.37,-15.52 -17.83,-27.51 -31.2,-35.81 -13.22,-8.46 -28.89,-12.6 -46.56,-12.6l-223.31 0 0 -87.46 219.77 0c37.81,0 71,7.84 99.74,23.52 28.59,15.52 50.88,37.66 66.55,66.39 15.84,28.59 23.67,61.78 23.67,99.29l0 0c0,37.5 -7.99,70.54 -23.83,99.28 -15.98,28.58 -38.26,50.72 -66.85,66.39 -28.74,15.53 -61.78,23.37 -99.28,23.37l-219.77 0 0 -87.3zm-40.11 -290.94l91.91 0 0 655.19 -91.91 0 0 -655.19zm218.39 357.95l91.43 -20.59 167.53 317.83 -108.96 0 -150 -297.24zm812.25 -55.33l0 114.34c0,48.73 -9.38,91.45 -28.28,128.65 -18.9,37.03 -45.64,65.63 -80.38,85.91 -34.74,20.29 -74.85,30.43 -120.49,30.43 -46.26,0 -86.84,-9.53 -121.73,-28.59 -35.03,-19.05 -62.09,-45.95 -81.3,-80.84 -19.21,-34.88 -28.89,-75.16 -28.89,-121.11l0 -193.18c0,-48.57 9.53,-91.46 28.43,-128.34 18.91,-36.88 45.64,-65.47 80.38,-85.76 34.74,-20.28 74.85,-30.43 120.49,-30.43 37.5,0 72.08,8.15 103.75,24.13 31.66,16.14 58.09,38.74 79.45,68.25 21.36,29.35 35.66,63.47 43.19,102.19l0 0 -99.44 0 0 0c-5.38,-21.97 -14.59,-40.72 -27.5,-56.55 -12.92,-15.68 -27.98,-27.66 -45.5,-35.96 -17.37,-8.3 -35.35,-12.46 -53.95,-12.46 -27.04,0 -50.72,6.46 -71.15,19.37 -20.45,12.91 -36.28,31.04 -47.34,54.25 -11.06,23.36 -16.6,50.41 -16.6,81.31l0 193.18c0,28.28 5.68,52.87 17.06,74.08 11.38,21.21 27.51,37.65 48.41,49.34 20.9,11.68 45.03,17.51 72.24,17.51 27.04,0 50.72,-6.14 71.15,-18.28 20.45,-12.14 36.12,-29.81 47.34,-52.87 11.07,-23.05 16.6,-50.56 16.6,-82.38l0 -28.43 -132.79 0 0 -87.76 226.85 0zm347.34 359.33c-45.65,0 -85.91,-9.99 -120.8,-29.97 -34.74,-19.98 -61.63,-48.11 -80.84,-84.68 -19.06,-36.43 -28.59,-78.69 -28.59,-126.65l0 -185.5c0,-48.1 9.53,-90.37 28.59,-126.79 19.21,-36.43 46.1,-64.71 80.84,-84.68 34.89,-19.99 75.15,-29.98 120.8,-29.98 45.49,0 85.76,9.99 120.65,29.98 34.73,19.97 61.78,48.25 80.84,84.68 19.05,36.42 28.59,78.69 28.59,126.79l0 185.5c0,47.96 -9.54,90.22 -28.59,126.65 -19.06,36.57 -46.11,64.7 -80.84,84.68 -34.89,19.98 -75.16,29.97 -120.65,29.97zm0 -90.52c26.9,0 50.72,-5.99 71.32,-18.29 20.59,-12.15 36.41,-29.36 47.64,-51.64 11.37,-22.45 16.9,-48.26 16.9,-77.77l0 -191.81c0,-29.36 -5.53,-55.33 -16.9,-77.61 -11.23,-22.44 -27.05,-39.65 -47.64,-51.8 -20.6,-12.14 -44.42,-18.28 -71.32,-18.28 -27.05,0 -50.87,6.14 -71.46,18.28 -20.6,12.15 -36.43,29.36 -47.65,51.8 -11.37,22.28 -16.91,48.25 -16.91,77.61l0 191.81c0,29.51 5.54,55.32 16.91,77.77 11.22,22.28 27.05,39.49 47.65,51.64 20.59,12.3 44.41,18.29 71.46,18.29z"/>
 </g>
</svg>
